<svg id="Layer_1" data-name="Layer 1" xmlns="http://www.w3.org/2000/svg" viewBox="0 0 32 32"><title>tothelist4_large</title><path d="M31,31H19a1,1,0,0,1-1-1V18a1,1,0,0,1,1-1H29l3,3V30A1,1,0,0,1,31,31Z" fill="#407fb9"/><rect x="21" y="19" width="8" height="4" fill="#fff"/><rect x="20" y="25" width="10" height="5" fill="#fff"/><rect x="25" y="19" width="3" height="3" fill="#407fb9"/><rect x="3" y="21" width="14" height="2" fill="#9da2a5"/><rect x="3" y="13" width="26" height="2" fill="#9da2a5"/><rect x="3" y="9" width="26" height="2" fill="#9da2a5"/><rect x="3" y="5" width="26" height="2" fill="#9da2a5"/><rect x="3" y="17" width="14" height="2" fill="#9da2a5"/><rect x="3" y="25" width="14" height="2" fill="#9da2a5"/></svg>