<svg id="Layer_1" data-name="Layer 1" xmlns="http://www.w3.org/2000/svg" viewBox="0 0 16 16"><title>tothelist4_small</title><path d="M15,16H8a1,1,0,0,1-1-1V8A1,1,0,0,1,8,7h6l2,2v6A1,1,0,0,1,15,16Z" fill="#407fb9"/><rect x="9" y="9" width="5" height="2" fill="#fff"/><rect x="9" y="13" width="5" height="2" fill="#fff"/><rect x="11" y="9" width="2" height="1" fill="#407fb9"/><rect x="1" y="1" width="13" height="1" fill="#798288"/><rect x="1" y="3" width="13" height="1" fill="#798288"/><rect x="1" y="5" width="13" height="1" fill="#798288"/><rect x="1" y="7" width="5" height="1" fill="#798288"/><rect x="1" y="9" width="5" height="1" fill="#798288"/><rect x="1" y="11" width="5" height="1" fill="#798288"/></svg>