<svg id="Layer_1" data-name="Layer 1" xmlns="http://www.w3.org/2000/svg" viewBox="0 0 16 16"><title>Ribbon_Login_small_2744af0ebdef48e08aab2ca277524d31</title><path d="M3,14v1.5a0.5,0.5,0,0,0,.5.5H6l7-7L10,7Z" fill="#d59633"/><circle cx="11.5" cy="7.5" r="4.5" fill="#d59633"/><circle cx="12.5" cy="6.5" r="1.5" fill="#fff"/><path d="M5,14.25a0.25,0.25,0,0,1-.18-0.43l4-4a0.25,0.25,0,0,1,.35.35l-4,4A0.25,0.25,0,0,1,5,14.25Z" fill="#fff"/><path d="M14.65,3h1.06a4.35,4.35,0,0,0-1-1.68A4.49,4.49,0,0,0,7.76,2H1.5L0.15,3.6a0.62,0.62,0,0,0,0,.8L1.5,6H6V5H2L1.12,4,2,3h5.8a1,1,0,0,0,.83-0.44A3.54,3.54,0,0,1,9,2,3.5,3.5,0,0,1,14,2,3.39,3.39,0,0,1,14.65,3Z" fill="#9da2a5"/></svg>