<svg id="Layer_1" data-name="Layer 1" xmlns="http://www.w3.org/2000/svg" viewBox="0 0 32 32"><title>Ribbon_Login_2744af0ebdef48e08aab2ca277524d31</title><path d="M21,7a9,9,0,0,0-8.35,12.35L5,27v4a1,1,0,0,0,1,1h4l7.65-7.65A9,9,0,1,0,21,7Zm2.5,8A2.5,2.5,0,1,1,26,12.5,2.5,2.5,0,0,1,23.5,15Z" fill="#e0ad5c"/><rect x="6" y="8" width="7" height="1" rx="0.5" ry="0.5" fill="#9da2a5"/><path d="M12.35,11H3.93L2.24,9,3.93,7h10a2,2,0,0,0,1.79-1.11,7,7,0,0,1,13.19,4,10,10,0,0,1,1.4,2.49A9,9,0,0,0,13.94,5H3L0.29,8.2a1.24,1.24,0,0,0,0,1.6L3,13h8.46A9.93,9.93,0,0,1,12.35,11Z" fill="#9da2a5"/><path d="M8,27.5a0.5,0.5,0,0,1-.35-0.85l8-8a0.5,0.5,0,0,1,.71.71l-8,8A0.5,0.5,0,0,1,8,27.5Z" fill="#fff"/></svg>